<svg width="21" height="21" viewBox="0 0 21 21" fill="none" xmlns="http://www.w3.org/2000/svg">
<path fill-rule="evenodd" clip-rule="evenodd" d="M6.65351 20.9969C8.26585 21.0145 9.86489 20.636 11.3573 19.8833C12.8496 19.1307 14.2054 18.019 15.3455 16.6133C16.4855 15.2075 17.387 13.5359 17.9973 11.6959C18.6075 9.85589 18.9143 7.88445 18.8998 5.89667V5.18338C19.7151 4.41788 20.4244 3.49448 21 2.44912C20.218 2.86853 19.3944 3.15873 18.5507 3.3122C19.4177 2.63881 20.0743 1.62359 20.4137 0.431709C19.5709 1.01031 18.6685 1.44579 17.7311 1.72632C17.3365 1.17822 16.8512 0.740603 16.308 0.442872C15.7648 0.14514 15.1762 -0.00580784 14.5818 0.000170909C13.4424 0.0213386 12.3546 0.58875 11.5488 1.5821C10.7431 2.57545 10.2829 3.91663 10.2657 5.32128C10.2391 5.71071 10.2788 6.10268 10.3824 6.47205C8.66578 6.36989 6.98675 5.8166 5.45774 4.84928C3.92874 3.88195 2.58509 2.52292 1.51681 0.863247C1.13436 1.69713 0.934942 2.63957 0.93824 3.59751C0.952898 4.46563 1.12786 5.31822 1.44984 6.09049C1.77181 6.86276 2.23233 7.53439 2.7964 8.05436C2.09548 8.03882 1.41066 7.79256 0.812883 7.34107C0.811636 8.57279 1.16133 9.76593 1.80091 10.7122C2.44049 11.6584 3.32932 12.2977 4.31224 12.5183C3.93232 12.6447 3.53816 12.6933 3.14547 12.6622C2.86806 12.6853 2.5898 12.6363 2.32873 12.5183C2.61405 13.5841 3.15936 14.5152 3.89013 15.1844C4.6209 15.8536 5.50146 16.2282 6.41147 16.2571C4.87807 17.7341 2.99112 18.5434 1.04527 18.5587C0.69255 18.5795 0.339439 18.5289 0 18.4089C1.93154 20.1383 4.26665 21.047 6.65351 20.9981" fill="white"/>
</svg>
