<svg width="21" height="21" viewBox="0 0 21 21" fill="none" xmlns="http://www.w3.org/2000/svg">
<path fill-rule="evenodd" clip-rule="evenodd" d="M10.501 1.88569C11.8992 1.83321 13.2993 1.87211 14.6924 2.00214C15.3684 1.99365 16.0399 2.11215 16.6722 2.35148C17.5445 2.75787 18.2455 3.45884 18.6519 4.33107C18.8913 4.96326 19.0098 5.63475 19.0013 6.31067C19.0013 7.35869 19.1177 7.70803 19.1177 10.5018C19.1702 11.8999 19.1313 13.2999 19.0013 14.6929C19.0098 15.3688 18.8913 16.0403 18.6519 16.6725C18.2451 17.544 17.5441 18.2443 16.6722 18.6502C16.0399 18.8895 15.3684 19.008 14.6924 18.9995C13.6443 18.9995 13.2949 19.116 10.501 19.116C9.10277 19.1684 7.70264 19.1295 6.30951 18.9995C5.63354 19.008 4.96199 18.8895 4.32976 18.6502C3.45762 18.244 2.75662 17.5434 2.35001 16.6715C2.11067 16.0394 1.99216 15.3679 2.00064 14.6919C2.00064 13.6439 1.88419 13.2946 1.88419 10.5008C1.8317 9.10274 1.8706 7.70272 2.00064 6.30971C1.99216 5.63379 2.11067 4.96229 2.35001 4.33011C2.55329 3.89828 2.829 3.50444 3.1652 3.16564C3.43828 2.75836 3.85358 2.46767 4.32976 2.35052C4.96199 2.11119 5.63354 1.99269 6.30951 2.00118C7.70264 1.87115 9.10277 1.83225 10.501 1.88473V1.88569ZM10.501 0.0215821C9.06395 -0.0293409 7.62516 0.00987241 6.19306 0.138991C5.31811 0.135461 4.44986 0.291681 3.63103 0.599966C2.92426 0.830384 2.28457 1.23015 1.76773 1.76443C1.23148 2.2819 0.830302 2.92295 0.599324 3.63143C0.235254 4.43384 0.0768132 5.31428 0.138312 6.19326C0.0095042 7.62527 -0.0293907 9.06395 0.0218562 10.5008C-0.0293907 11.9377 0.0095042 13.3764 0.138312 14.8084C0.134899 15.683 0.291129 16.5508 0.599324 17.3693C0.82976 18.076 1.22956 18.7156 1.76388 19.2324C2.28192 19.7669 2.92297 20.1663 3.63103 20.3959C4.44925 20.7057 5.31717 20.8636 6.19209 20.8617C7.62422 20.9905 9.06301 21.0294 10.5 20.9781C11.937 21.0294 13.3758 20.9905 14.8079 20.8617C15.6828 20.8636 16.5507 20.7057 17.369 20.3959C18.0702 20.1543 18.7072 19.7562 19.2317 19.2318C19.7561 18.7074 20.1543 18.0704 20.3959 17.3693C20.7057 16.5511 20.8636 15.6832 20.8617 14.8084C20.8617 13.6439 20.9781 13.2946 20.9781 10.5008C21.0294 9.06395 20.9905 7.62527 20.8617 6.19326C20.864 5.31814 20.7064 4.44996 20.3968 3.63143C20.1664 2.92472 19.7666 2.28508 19.2323 1.76828C18.7161 1.23274 18.0767 0.831633 17.3699 0.599966C16.5514 0.291796 15.6835 0.135578 14.8089 0.138991C13.3767 0.0101909 11.938 -0.0287009 10.501 0.0225445V0.0215821ZM10.501 5.14524C9.79437 5.13353 9.09264 5.26405 8.43753 5.52905C7.78241 5.79404 7.1873 6.1881 6.6876 6.68776C6.18789 7.18743 5.79381 7.78249 5.52879 8.43756C5.26377 9.09262 5.13324 9.79429 5.14495 10.5008C5.14495 11.5601 5.45908 12.5955 6.0476 13.4762C6.63613 14.357 7.47262 15.0434 8.45131 15.4487C9.42999 15.8541 10.5069 15.9602 11.5459 15.7535C12.5848 15.5469 13.5392 15.0368 14.2882 14.2878C15.0373 13.5388 15.5474 12.5845 15.7541 11.5456C15.9607 10.5068 15.8547 9.42994 15.4493 8.45133C15.0439 7.47273 14.3574 6.6363 13.4766 6.04782C12.5958 5.45934 11.5603 5.14524 10.501 5.14524ZM10.501 13.9933C10.04 14.0018 9.58197 13.9172 9.15438 13.7447C8.72679 13.5722 8.33837 13.3153 8.01234 12.9893C7.6863 12.6632 7.42934 12.2749 7.25682 11.8473C7.0843 11.4197 6.99976 10.9618 7.00825 10.5008C6.99976 10.0399 7.0843 9.58191 7.25682 9.15435C7.42934 8.72679 7.6863 8.3384 8.01234 8.0124C8.33837 7.68639 8.72679 7.42945 9.15438 7.25694C9.58197 7.08444 10.04 6.9999 10.501 7.00839C10.962 6.9999 11.42 7.08444 11.8475 7.25694C12.2751 7.42945 12.6636 7.68639 12.9896 8.0124C13.3156 8.3384 13.5726 8.72679 13.7451 9.15435C13.9176 9.58191 14.0022 10.0399 13.9937 10.5008C14.0022 10.9618 13.9176 11.4197 13.7451 11.8473C13.5726 12.2749 13.3156 12.6632 12.9896 12.9893C12.6636 13.3153 12.2751 13.5722 11.8475 13.7447C11.42 13.9172 10.962 14.0018 10.501 13.9933ZM16.0889 3.63143C15.8356 3.63143 15.5879 3.70656 15.3772 3.8473C15.1666 3.98805 15.0024 4.1881 14.9054 4.42216C14.8085 4.65622 14.7831 4.91377 14.8325 5.16224C14.8819 5.41071 15.004 5.63895 15.1831 5.81809C15.3623 5.99723 15.5905 6.11922 15.839 6.16865C16.0875 6.21807 16.3451 6.1927 16.5791 6.09576C16.8132 5.99881 17.0133 5.83463 17.154 5.62398C17.2948 5.41334 17.3699 5.16569 17.3699 4.91234C17.3669 4.57356 17.231 4.2495 16.9914 4.00993C16.7518 3.77037 16.4277 3.63444 16.0889 3.63143Z" fill="white"/>
</svg>
